<?xml version="1.0" encoding="UTF-8" standalone="no"?>
<!DOCTYPE svg PUBLIC "-//W3C//DTD SVG 1.1//EN"
 "http://www.w3.org/Graphics/SVG/1.1/DTD/svg11.dtd">
<!-- Generated by graphviz version 2.40.1 (20161225.0304)
 -->
<!-- Title: G Pages: 1 -->
<svg width="1383pt" height="763pt"
 viewBox="0.00 0.00 1383.50 762.96" xmlns="http://www.w3.org/2000/svg" xmlns:xlink="http://www.w3.org/1999/xlink">
<g id="graph0" class="graph" transform="scale(1 1) rotate(0) translate(4 758.9605)">
<title>G</title><style>.edge>path:hover{stroke-width:8}</style>
<polygon fill="#ffffff" stroke="transparent" points="-4,4 -4,-758.9605 1379.4999,-758.9605 1379.4999,4 -4,4"/>
<!-- s3scraper_tpscraper_tp_scraper_spiders_tp -->
<g id="node1" class="node">
<title>s3scraper_tpscraper_tp_scraper_spiders_tp</title><style>.edge>path:hover{stroke-width:8}</style>
<ellipse fill="#4c87b3" stroke="#000000" cx="719.7499" cy="-195.6812" rx="46.1001" ry="33.8824"/>
<text text-anchor="middle" x="719.7499" y="-207.6812" font-family="Helvetica,sans-Serif" font-size="10.00" fill="#ffffff">tpscraper.</text>
<text text-anchor="middle" x="719.7499" y="-197.6812" font-family="Helvetica,sans-Serif" font-size="10.00" fill="#ffffff">tp_scraper.</text>
<text text-anchor="middle" x="719.7499" y="-187.6812" font-family="Helvetica,sans-Serif" font-size="10.00" fill="#ffffff">spiders.</text>
<text text-anchor="middle" x="719.7499" y="-177.6812" font-family="Helvetica,sans-Serif" font-size="10.00" fill="#ffffff">tp</text>
</g>
<!-- s3scraper_main -->
<g id="node2" class="node">
<title>s3scraper_main</title><style>.edge>path:hover{stroke-width:8}</style>
<ellipse fill="#4981ac" stroke="#000000" cx="869.7499" cy="-107.7401" rx="27" ry="18"/>
<text text-anchor="middle" x="869.7499" y="-104.7401" font-family="Helvetica,sans-Serif" font-size="10.00" fill="#ffffff">main</text>
</g>
<!-- s3scraper_ebayscraper_scraping_ebay_spiders_ebay -->
<g id="node3" class="node">
<title>s3scraper_ebayscraper_scraping_ebay_spiders_ebay</title><style>.edge>path:hover{stroke-width:8}</style>
<ellipse fill="#4c87b3" stroke="#000000" cx="58.7499" cy="-195.6812" rx="59.0009" ry="33.8824"/>
<text text-anchor="middle" x="58.7499" y="-207.6812" font-family="Helvetica,sans-Serif" font-size="10.00" fill="#ffffff">ebayscraper.</text>
<text text-anchor="middle" x="58.7499" y="-197.6812" font-family="Helvetica,sans-Serif" font-size="10.00" fill="#ffffff">scraping_ebay.</text>
<text text-anchor="middle" x="58.7499" y="-187.6812" font-family="Helvetica,sans-Serif" font-size="10.00" fill="#ffffff">spiders.</text>
<text text-anchor="middle" x="58.7499" y="-177.6812" font-family="Helvetica,sans-Serif" font-size="10.00" fill="#ffffff">ebay</text>
</g>
<!-- s3scraper_tpscraper_tp_scraper_proxy_scrape -->
<g id="node4" class="node">
<title>s3scraper_tpscraper_tp_scraper_proxy_scrape</title><style>.edge>path:hover{stroke-width:8}</style>
<ellipse fill="#467ca4" stroke="#000000" cx="1185.7499" cy="-436.4924" rx="53.5227" ry="26.7407"/>
<text text-anchor="middle" x="1185.7499" y="-443.4924" font-family="Helvetica,sans-Serif" font-size="10.00" fill="#ffffff">tpscraper.</text>
<text text-anchor="middle" x="1185.7499" y="-433.4924" font-family="Helvetica,sans-Serif" font-size="10.00" fill="#ffffff">tp_scraper.</text>
<text text-anchor="middle" x="1185.7499" y="-423.4924" font-family="Helvetica,sans-Serif" font-size="10.00" fill="#ffffff">proxy_scrape</text>
</g>
<!-- s3scraper_scraper -->
<g id="node5" class="node">
<title>s3scraper_scraper</title><style>.edge>path:hover{stroke-width:8}</style>
<ellipse fill="#3878a8" stroke="#000000" cx="1001.7499" cy="-283.6224" rx="28.4784" ry="18"/>
<text text-anchor="middle" x="1001.7499" y="-280.6224" font-family="Helvetica,sans-Serif" font-size="10.00" fill="#ffffff">scraper</text>
</g>
<!-- s3scraper_cli -->
<g id="node9" class="node">
<title>s3scraper_cli</title><style>.edge>path:hover{stroke-width:8}</style>
<ellipse fill="#336d99" stroke="#000000" cx="917.7499" cy="-195.6812" rx="27" ry="18"/>
<text text-anchor="middle" x="917.7499" y="-192.6812" font-family="Helvetica,sans-Serif" font-size="10.00" fill="#ffffff">cli</text>
</g>
<!-- s3scraper_scraper&#45;&gt;s3scraper_cli -->
<g id="edge25" class="edge">
<title>s3scraper_scraper&#45;&gt;s3scraper_cli</title><style>.edge>path:hover{stroke-width:8}</style>
<path fill="none" stroke="#000000" d="M986.7324,-267.9003C973.632,-254.1852 954.4578,-234.1114 939.6478,-218.6065"/>
<polygon fill="#3878a8" stroke="#000000" points="941.7943,-215.7865 932.3561,-210.9727 936.7324,-220.6215 941.7943,-215.7865"/>
</g>
<!-- s3scraper_amazonscraper_logger -->
<g id="node6" class="node">
<title>s3scraper_amazonscraper_logger</title><style>.edge>path:hover{stroke-width:8}</style>
<ellipse fill="#2f91db" stroke="#000000" cx="1099.7499" cy="-519.1615" rx="61.7523" ry="19.6"/>
<text text-anchor="middle" x="1099.7499" y="-521.1615" font-family="Helvetica,sans-Serif" font-size="10.00" fill="#ffffff">amazonscraper.</text>
<text text-anchor="middle" x="1099.7499" y="-511.1615" font-family="Helvetica,sans-Serif" font-size="10.00" fill="#ffffff">logger</text>
</g>
<!-- s3scraper_amazonscraper_logger&#45;&gt;s3scraper_cli -->
<g id="edge15" class="edge">
<title>s3scraper_amazonscraper_logger&#45;&gt;s3scraper_cli</title><style>.edge>path:hover{stroke-width:8}</style>
<path fill="none" stroke="#000000" d="M1099.7499,-436.4924C1084.7796,-370.22 1120.7881,-348.2253 1099.7499,-283.6224"/>
</g>
<!-- s3scraper_amazonscraper -->
<g id="node15" class="node">
<title>s3scraper_amazonscraper</title><style>.edge>path:hover{stroke-width:8}</style>
<ellipse fill="#2076b6" stroke="#000000" cx="1022.7499" cy="-355.6224" rx="49.0582" ry="18"/>
<text text-anchor="middle" x="1022.7499" y="-352.6224" font-family="Helvetica,sans-Serif" font-size="10.00" fill="#ffffff">amazonscraper</text>
</g>
<!-- s3scraper_amazonscraper_logger&#45;&gt;s3scraper_amazonscraper -->
<g id="edge13" class="edge">
<title>s3scraper_amazonscraper_logger&#45;&gt;s3scraper_amazonscraper</title><style>.edge>path:hover{stroke-width:8}</style>
<path fill="none" stroke="#000000" d="M1099.7499,-436.4924C1094.1936,-411.895 1074.4037,-391.415 1056.2794,-377.2188"/>
<polygon fill="#2f91db" stroke="#000000" points="1058.237,-374.3127 1048.1264,-371.1462 1054.0555,-379.9266 1058.237,-374.3127"/>
<path fill="none" stroke="#000000" d="M1102.1897,-499.1794C1103.6782,-482.2646 1104.4935,-457.4917 1099.7499,-436.4924"/>
</g>
<!-- s3scraper_amazonscraper_client -->
<g id="node16" class="node">
<title>s3scraper_amazonscraper_client</title><style>.edge>path:hover{stroke-width:8}</style>
<ellipse fill="#3878a8" stroke="#000000" cx="958.7499" cy="-436.4924" rx="61.7523" ry="19.6"/>
<text text-anchor="middle" x="958.7499" y="-438.4924" font-family="Helvetica,sans-Serif" font-size="10.00" fill="#ffffff">amazonscraper.</text>
<text text-anchor="middle" x="958.7499" y="-428.4924" font-family="Helvetica,sans-Serif" font-size="10.00" fill="#ffffff">client</text>
</g>
<!-- s3scraper_amazonscraper_logger&#45;&gt;s3scraper_amazonscraper_client -->
<g id="edge14" class="edge">
<title>s3scraper_amazonscraper_logger&#45;&gt;s3scraper_amazonscraper_client</title><style>.edge>path:hover{stroke-width:8}</style>
<path fill="none" stroke="#000000" d="M1069.8475,-501.6295C1048.7234,-489.2443 1020.2227,-472.5342 997.3775,-459.14"/>
<polygon fill="#2f91db" stroke="#000000" points="999.0062,-456.0377 988.6093,-453.9991 995.4657,-462.0763 999.0062,-456.0377"/>
</g>
<!-- s3scraper_ebayscraper_scraping_ebay_middlewares -->
<g id="node7" class="node">
<title>s3scraper_ebayscraper_scraping_ebay_middlewares</title><style>.edge>path:hover{stroke-width:8}</style>
<ellipse fill="#4981ac" stroke="#000000" cx="193.7499" cy="-195.6812" rx="59.0009" ry="26.7407"/>
<text text-anchor="middle" x="193.7499" y="-202.6812" font-family="Helvetica,sans-Serif" font-size="10.00" fill="#ffffff">ebayscraper.</text>
<text text-anchor="middle" x="193.7499" y="-192.6812" font-family="Helvetica,sans-Serif" font-size="10.00" fill="#ffffff">scraping_ebay.</text>
<text text-anchor="middle" x="193.7499" y="-182.6812" font-family="Helvetica,sans-Serif" font-size="10.00" fill="#ffffff">middlewares</text>
</g>
<!-- s3scraper_reporter -->
<g id="node8" class="node">
<title>s3scraper_reporter</title><style>.edge>path:hover{stroke-width:8}</style>
<ellipse fill="#4089c0" stroke="#000000" cx="888.7499" cy="-283.6224" rx="29.4067" ry="18"/>
<text text-anchor="middle" x="888.7499" y="-280.6224" font-family="Helvetica,sans-Serif" font-size="10.00" fill="#ffffff">reporter</text>
</g>
<!-- s3scraper_reporter&#45;&gt;s3scraper_cli -->
<g id="edge24" class="edge">
<title>s3scraper_reporter&#45;&gt;s3scraper_cli</title><style>.edge>path:hover{stroke-width:8}</style>
<path fill="none" stroke="#000000" d="M894.6185,-265.8262C898.6672,-253.5487 904.1275,-236.9907 908.7262,-223.0452"/>
<polygon fill="#4089c0" stroke="#000000" points="912.0822,-224.0441 911.8901,-213.451 905.4343,-221.8518 912.0822,-224.0441"/>
</g>
<!-- s3scraper_cli&#45;&gt;s3scraper_main -->
<g id="edge18" class="edge">
<title>s3scraper_cli&#45;&gt;s3scraper_main</title><style>.edge>path:hover{stroke-width:8}</style>
<path fill="none" stroke="#000000" d="M908.4951,-178.7253C901.5673,-166.033 891.9634,-148.4376 884.0507,-133.9406"/>
<polygon fill="#336d99" stroke="#000000" points="887.0034,-132.0448 879.1402,-124.9441 880.8591,-135.3985 887.0034,-132.0448"/>
</g>
<!-- s3scraper_ebayscraper_scraping_ebay_proxy_scrape -->
<g id="node10" class="node">
<title>s3scraper_ebayscraper_scraping_ebay_proxy_scrape</title><style>.edge>path:hover{stroke-width:8}</style>
<ellipse fill="#467ca4" stroke="#000000" cx="1316.7499" cy="-436.4924" rx="59.0009" ry="26.7407"/>
<text text-anchor="middle" x="1316.7499" y="-443.4924" font-family="Helvetica,sans-Serif" font-size="10.00" fill="#ffffff">ebayscraper.</text>
<text text-anchor="middle" x="1316.7499" y="-433.4924" font-family="Helvetica,sans-Serif" font-size="10.00" fill="#ffffff">scraping_ebay.</text>
<text text-anchor="middle" x="1316.7499" y="-423.4924" font-family="Helvetica,sans-Serif" font-size="10.00" fill="#ffffff">proxy_scrape</text>
</g>
<!-- s3scraper_ebayscraper_scraping_ebay_items -->
<g id="node11" class="node">
<title>s3scraper_ebayscraper_scraping_ebay_items</title><style>.edge>path:hover{stroke-width:8}</style>
<ellipse fill="#4c87b3" stroke="#000000" cx="328.7499" cy="-195.6812" rx="59.0009" ry="26.7407"/>
<text text-anchor="middle" x="328.7499" y="-202.6812" font-family="Helvetica,sans-Serif" font-size="10.00" fill="#ffffff">ebayscraper.</text>
<text text-anchor="middle" x="328.7499" y="-192.6812" font-family="Helvetica,sans-Serif" font-size="10.00" fill="#ffffff">scraping_ebay.</text>
<text text-anchor="middle" x="328.7499" y="-182.6812" font-family="Helvetica,sans-Serif" font-size="10.00" fill="#ffffff">items</text>
</g>
<!-- s3scraper_amazonscraper_proxy_scrape -->
<g id="node12" class="node">
<title>s3scraper_amazonscraper_proxy_scrape</title><style>.edge>path:hover{stroke-width:8}</style>
<ellipse fill="#2f7fbc" stroke="#000000" cx="958.7499" cy="-519.1615" rx="61.7523" ry="19.6"/>
<text text-anchor="middle" x="958.7499" y="-521.1615" font-family="Helvetica,sans-Serif" font-size="10.00" fill="#ffffff">amazonscraper.</text>
<text text-anchor="middle" x="958.7499" y="-511.1615" font-family="Helvetica,sans-Serif" font-size="10.00" fill="#ffffff">proxy_scrape</text>
</g>
<!-- s3scraper_amazonscraper_proxy_scrape&#45;&gt;s3scraper_amazonscraper -->
<g id="edge16" class="edge">
<title>s3scraper_amazonscraper_proxy_scrape&#45;&gt;s3scraper_amazonscraper</title><style>.edge>path:hover{stroke-width:8}</style>
<path fill="none" stroke="#000000" d="M991.724,-502.2658C1006.2133,-492.9332 1021.7326,-479.8603 1029.7499,-463.3625 1041.8991,-438.3624 1037.6246,-406.1745 1031.8769,-383.5143"/>
<polygon fill="#2f7fbc" stroke="#000000" points="1035.2363,-382.5309 1029.1861,-373.8334 1028.492,-384.4055 1035.2363,-382.5309"/>
</g>
<!-- s3scraper_amazonscraper_proxy_scrape&#45;&gt;s3scraper_amazonscraper_client -->
<g id="edge17" class="edge">
<title>s3scraper_amazonscraper_proxy_scrape&#45;&gt;s3scraper_amazonscraper_client</title><style>.edge>path:hover{stroke-width:8}</style>
<path fill="none" stroke="#000000" d="M958.7499,-499.1496C958.7499,-489.4014 958.7499,-477.4743 958.7499,-466.6522"/>
<polygon fill="#2f7fbc" stroke="#000000" points="962.25,-466.32 958.7499,-456.32 955.25,-466.32 962.25,-466.32"/>
</g>
<!-- s3scraper_tpscraper_tp_scraper_items -->
<g id="node13" class="node">
<title>s3scraper_tpscraper_tp_scraper_items</title><style>.edge>path:hover{stroke-width:8}</style>
<ellipse fill="#4c87b3" stroke="#000000" cx="451.7499" cy="-195.6812" rx="46.1001" ry="26.7407"/>
<text text-anchor="middle" x="451.7499" y="-202.6812" font-family="Helvetica,sans-Serif" font-size="10.00" fill="#ffffff">tpscraper.</text>
<text text-anchor="middle" x="451.7499" y="-192.6812" font-family="Helvetica,sans-Serif" font-size="10.00" fill="#ffffff">tp_scraper.</text>
<text text-anchor="middle" x="451.7499" y="-182.6812" font-family="Helvetica,sans-Serif" font-size="10.00" fill="#ffffff">items</text>
</g>
<!-- s3scraper_tpscraper_tp_scraper_middlewares -->
<g id="node14" class="node">
<title>s3scraper_tpscraper_tp_scraper_middlewares</title><style>.edge>path:hover{stroke-width:8}</style>
<ellipse fill="#4981ac" stroke="#000000" cx="604.7499" cy="-195.6812" rx="51.0112" ry="26.7407"/>
<text text-anchor="middle" x="604.7499" y="-202.6812" font-family="Helvetica,sans-Serif" font-size="10.00" fill="#ffffff">tpscraper.</text>
<text text-anchor="middle" x="604.7499" y="-192.6812" font-family="Helvetica,sans-Serif" font-size="10.00" fill="#ffffff">tp_scraper.</text>
<text text-anchor="middle" x="604.7499" y="-182.6812" font-family="Helvetica,sans-Serif" font-size="10.00" fill="#ffffff">middlewares</text>
</g>
<!-- s3scraper_amazonscraper&#45;&gt;s3scraper_scraper -->
<g id="edge11" class="edge">
<title>s3scraper_amazonscraper&#45;&gt;s3scraper_scraper</title><style>.edge>path:hover{stroke-width:8}</style>
<path fill="none" stroke="#000000" d="M1017.4508,-337.4537C1015.1452,-329.5489 1012.3921,-320.1096 1009.8398,-311.3589"/>
<polygon fill="#2076b6" stroke="#000000" points="1013.1348,-310.1558 1006.9747,-301.5358 1006.4148,-312.1158 1013.1348,-310.1558"/>
</g>
<!-- s3scraper_amazonscraper&#45;&gt;s3scraper_cli -->
<g id="edge10" class="edge">
<title>s3scraper_amazonscraper&#45;&gt;s3scraper_cli</title><style>.edge>path:hover{stroke-width:8}</style>
<path fill="none" stroke="#000000" d="M1055.7942,-342.2383C1080.3537,-329.9585 1108.2506,-309.7258 1099.7499,-283.6224"/>
<path fill="none" stroke="#000000" d="M1099.7499,-283.6224C1080.7071,-225.1467 1002.448,-205.5201 954.9699,-198.9565"/>
<polygon fill="#2076b6" stroke="#000000" points="955.1218,-195.4483 944.7647,-197.6803 954.2531,-202.3942 955.1218,-195.4483"/>
</g>
<!-- s3scraper_amazonscraper_client&#45;&gt;s3scraper_amazonscraper -->
<g id="edge12" class="edge">
<title>s3scraper_amazonscraper_client&#45;&gt;s3scraper_amazonscraper</title><style>.edge>path:hover{stroke-width:8}</style>
<path fill="none" stroke="#000000" d="M974.2426,-416.916C982.7564,-406.158 993.4171,-392.6872 1002.5744,-381.1161"/>
<polygon fill="#3878a8" stroke="#000000" points="1005.4632,-383.1057 1008.9245,-373.0922 999.9742,-378.7617 1005.4632,-383.1057"/>
</g>
<!-- s3scraper_tpscraper_tp_scraper_policy -->
<g id="node17" class="node">
<title>s3scraper_tpscraper_tp_scraper_policy</title><style>.edge>path:hover{stroke-width:8}</style>
<ellipse fill="#4981ac" stroke="#000000" cx="525.7499" cy="-26.8701" rx="46.1001" ry="26.7407"/>
<text text-anchor="middle" x="525.7499" y="-33.8701" font-family="Helvetica,sans-Serif" font-size="10.00" fill="#ffffff">tpscraper.</text>
<text text-anchor="middle" x="525.7499" y="-23.8701" font-family="Helvetica,sans-Serif" font-size="10.00" fill="#ffffff">tp_scraper.</text>
<text text-anchor="middle" x="525.7499" y="-13.8701" font-family="Helvetica,sans-Serif" font-size="10.00" fill="#ffffff">policy</text>
</g>
<!-- s3scraper_db -->
<g id="node18" class="node">
<title>s3scraper_db</title><style>.edge>path:hover{stroke-width:8}</style>
<ellipse fill="#0b7fd6" stroke="#000000" cx="848.7499" cy="-436.4924" rx="27" ry="18"/>
<text text-anchor="middle" x="848.7499" y="-433.4924" font-family="Helvetica,sans-Serif" font-size="10.00" fill="#ffffff">db</text>
</g>
<!-- s3scraper_db&#45;&gt;s3scraper_main -->
<g id="edge20" class="edge">
<title>s3scraper_db&#45;&gt;s3scraper_main</title><style>.edge>path:hover{stroke-width:8}</style>
<path fill="none" stroke="#000000" d="M836.423,-420.4623C827.916,-408.3383 817.3418,-390.8823 812.7499,-373.6224 808.6364,-358.1602 810.8103,-353.5044 812.7499,-337.6224 821.8678,-262.9636 847.0568,-177.6308 860.6955,-134.9942"/>
<polygon fill="#0b7fd6" stroke="#000000" points="864.0679,-135.9403 863.818,-125.3484 857.4082,-133.7844 864.0679,-135.9403"/>
</g>
<!-- s3scraper_db&#45;&gt;s3scraper_scraper -->
<g id="edge22" class="edge">
<title>s3scraper_db&#45;&gt;s3scraper_scraper</title><style>.edge>path:hover{stroke-width:8}</style>
<path fill="none" stroke="#000000" d="M945.7499,-355.6224C954.1056,-337.6694 967.6598,-320.0762 979.3403,-306.7748"/>
<polygon fill="#0b7fd6" stroke="#000000" points="982.1886,-308.8439 986.3078,-299.0826 977.0004,-304.1446 982.1886,-308.8439"/>
</g>
<!-- s3scraper_db&#45;&gt;s3scraper_reporter -->
<g id="edge21" class="edge">
<title>s3scraper_db&#45;&gt;s3scraper_reporter</title><style>.edge>path:hover{stroke-width:8}</style>
<path fill="none" stroke="#000000" d="M867.9842,-423.4718C893.8369,-405.5003 937.5161,-373.3136 945.7499,-355.6224"/>
<path fill="none" stroke="#000000" d="M945.7499,-355.6224C955.2007,-335.3166 937.1136,-315.6146 918.8664,-301.9688"/>
<polygon fill="#0b7fd6" stroke="#000000" points="920.7653,-299.0255 910.5696,-296.1448 916.7435,-304.7549 920.7653,-299.0255"/>
</g>
<!-- s3scraper_db&#45;&gt;s3scraper_cli -->
<g id="edge19" class="edge">
<title>s3scraper_db&#45;&gt;s3scraper_cli</title><style>.edge>path:hover{stroke-width:8}</style>
<path fill="none" stroke="#000000" d="M945.7499,-355.6224C966.1237,-311.8474 946.7004,-255.0514 931.6135,-222.2542"/>
<polygon fill="#0b7fd6" stroke="#000000" points="934.6008,-220.3892 927.1195,-212.8872 928.2896,-223.4172 934.6008,-220.3892"/>
</g>
<!-- s3scraper_utils -->
<g id="node19" class="node">
<title>s3scraper_utils</title><style>.edge>path:hover{stroke-width:8}</style>
<ellipse fill="#3185c4" stroke="#000000" cx="848.7499" cy="-355.6224" rx="27" ry="18"/>
<text text-anchor="middle" x="848.7499" y="-352.6224" font-family="Helvetica,sans-Serif" font-size="10.00" fill="#ffffff">utils</text>
</g>
<!-- s3scraper_db&#45;&gt;s3scraper_utils -->
<g id="edge23" class="edge">
<title>s3scraper_db&#45;&gt;s3scraper_utils</title><style>.edge>path:hover{stroke-width:8}</style>
<path fill="none" stroke="#000000" d="M848.7499,-418.1418C848.7499,-408.1122 848.7499,-395.4677 848.7499,-384.1788"/>
<polygon fill="#0b7fd6" stroke="#000000" points="852.25,-383.9004 848.7499,-373.9004 845.25,-383.9004 852.25,-383.9004"/>
</g>
<!-- s3scraper_utils&#45;&gt;s3scraper_scraper -->
<g id="edge27" class="edge">
<title>s3scraper_utils&#45;&gt;s3scraper_scraper</title><style>.edge>path:hover{stroke-width:8}</style>
<path fill="none" stroke="#000000" d="M870.9975,-345.1529C896.9481,-332.9409 940.059,-312.6534 969.6361,-298.7348"/>
<polygon fill="#3185c4" stroke="#000000" points="971.1667,-301.8827 978.7246,-294.4578 968.1861,-295.549 971.1667,-301.8827"/>
</g>
<!-- s3scraper_utils&#45;&gt;s3scraper_cli -->
<g id="edge26" class="edge">
<title>s3scraper_utils&#45;&gt;s3scraper_cli</title><style>.edge>path:hover{stroke-width:8}</style>
<path fill="none" stroke="#000000" d="M845.4383,-337.5903C842.8272,-318.8385 841.0522,-289.0102 850.7499,-265.6224 859.1187,-245.4397 876.2529,-227.7265 891.0985,-215.1756"/>
<polygon fill="#3185c4" stroke="#000000" points="893.467,-217.7615 899.0404,-208.7511 889.0644,-212.3192 893.467,-217.7615"/>
</g>
<!-- bs4 -->
<g id="node20" class="node">
<title>bs4</title><style>.edge>path:hover{stroke-width:8}</style>
<polygon fill="#b65353" stroke="#000000" points="895.7499,-682.9605 892.7499,-686.9605 871.7499,-686.9605 868.7499,-682.9605 841.7499,-682.9605 841.7499,-646.9605 895.7499,-646.9605 895.7499,-682.9605"/>
<text text-anchor="middle" x="868.7499" y="-661.9605" font-family="Helvetica,sans-Serif" font-size="10.00" fill="#ffffff">bs4</text>
</g>
<!-- bs4&#45;&gt;s3scraper_amazonscraper_client -->
<g id="edge1" class="edge">
<title>bs4&#45;&gt;s3scraper_amazonscraper_client</title><style>.edge>path:hover{stroke-width:8}</style>
<path fill="none" stroke="#000000" d="M866.937,-646.745C865.9113,-632.0886 865.4165,-611.0306 868.7499,-592.9605"/>
</g>
<!-- lxml -->
<g id="node21" class="node">
<title>lxml</title><style>.edge>path:hover{stroke-width:8}</style>
<polygon fill="#dbc22f" stroke="#000000" points="1254.7499,-754.9605 1251.7499,-758.9605 1230.7499,-758.9605 1227.7499,-754.9605 1200.7499,-754.9605 1200.7499,-718.9605 1254.7499,-718.9605 1254.7499,-754.9605"/>
<text text-anchor="middle" x="1227.7499" y="-733.9605" font-family="Helvetica,sans-Serif" font-size="10.00" fill="#000000">lxml</text>
</g>
<!-- lxml&#45;&gt;s3scraper_tpscraper_tp_scraper_proxy_scrape -->
<g id="edge4" class="edge">
<title>lxml&#45;&gt;s3scraper_tpscraper_tp_scraper_proxy_scrape</title><style>.edge>path:hover{stroke-width:8}</style>
<path fill="none" stroke="#000000" d="M1227.7499,-664.9605C1220.0561,-633.8992 1231.771,-624.7068 1227.7499,-592.9605"/>
<path fill="none" stroke="#000000" d="M1227.7499,-592.9605C1223.1141,-556.3605 1195.2691,-555.6386 1189.7499,-519.1615"/>
</g>
<!-- lxml&#45;&gt;s3scraper_ebayscraper_scraping_ebay_proxy_scrape -->
<g id="edge3" class="edge">
<title>lxml&#45;&gt;s3scraper_ebayscraper_scraping_ebay_proxy_scrape</title><style>.edge>path:hover{stroke-width:8}</style>
<path fill="none" stroke="#000000" d="M1227.7499,-592.9605C1223.6284,-560.4209 1210.9675,-547.3423 1227.7499,-519.1615"/>
</g>
<!-- lxml&#45;&gt;s3scraper_amazonscraper_proxy_scrape -->
<g id="edge2" class="edge">
<title>lxml&#45;&gt;s3scraper_amazonscraper_proxy_scrape</title><style>.edge>path:hover{stroke-width:8}</style>
<path fill="none" stroke="#000000" d="M1230.1249,-718.9173C1231.5029,-704.1764 1232.1979,-682.9178 1227.7499,-664.9605"/>
<path fill="none" stroke="#000000" d="M1227.7499,-664.9605C1222.1564,-642.3785 1169.892,-607.5241 1151.7499,-592.9605"/>
</g>
<!-- requests -->
<g id="node22" class="node">
<title>requests</title><style>.edge>path:hover{stroke-width:8}</style>
<polygon fill="#54e619" stroke="#000000" points="1029.1056,-754.9605 1026.1056,-758.9605 1005.1056,-758.9605 1002.1056,-754.9605 974.3943,-754.9605 974.3943,-718.9605 1029.1056,-718.9605 1029.1056,-754.9605"/>
<text text-anchor="middle" x="1001.7499" y="-733.9605" font-family="Helvetica,sans-Serif" font-size="10.00" fill="#000000">requests</text>
</g>
<!-- requests&#45;&gt;s3scraper_tpscraper_tp_scraper_proxy_scrape -->
<g id="edge8" class="edge">
<title>requests&#45;&gt;s3scraper_tpscraper_tp_scraper_proxy_scrape</title><style>.edge>path:hover{stroke-width:8}</style>
<path fill="none" stroke="#000000" d="M1170.7499,-664.9605C1188.9983,-637.3506 1181.4019,-624.9857 1189.7499,-592.9605"/>
<path fill="none" stroke="#000000" d="M1189.7499,-519.1615C1187.5012,-504.2993 1186.4224,-487.7794 1185.9328,-473.4382"/>
<polygon fill="#54e619" stroke="#000000" points="1189.4315,-473.341 1185.6722,-463.4356 1182.4339,-473.5234 1189.4315,-473.341"/>
<path fill="none" stroke="#000000" d="M1189.7499,-592.9605C1198.0233,-561.2215 1194.6568,-551.5919 1189.7499,-519.1615"/>
</g>
<!-- requests&#45;&gt;s3scraper_ebayscraper_scraping_ebay_proxy_scrape -->
<g id="edge7" class="edge">
<title>requests&#45;&gt;s3scraper_ebayscraper_scraping_ebay_proxy_scrape</title><style>.edge>path:hover{stroke-width:8}</style>
<path fill="none" stroke="#000000" d="M1227.7499,-519.1615C1240.1015,-498.4208 1259.2017,-479.6996 1276.5457,-465.3387"/>
<polygon fill="#54e619" stroke="#000000" points="1278.76,-468.0494 1284.3604,-459.0557 1274.3738,-462.5939 1278.76,-468.0494"/>
<path fill="none" stroke="#000000" d="M1189.7499,-592.9605C1199.0557,-557.2611 1208.8734,-550.8588 1227.7499,-519.1615"/>
</g>
<!-- requests&#45;&gt;s3scraper_amazonscraper_proxy_scrape -->
<g id="edge6" class="edge">
<title>requests&#45;&gt;s3scraper_amazonscraper_proxy_scrape</title><style>.edge>path:hover{stroke-width:8}</style>
<path fill="none" stroke="#000000" d="M1170.7499,-664.9605C1188.9983,-637.3506 1177.5584,-613.6784 1151.7499,-592.9605"/>
<path fill="none" stroke="#000000" d="M1151.7499,-592.9605C1129.7856,-575.3285 1062.1484,-551.5596 1013.1345,-535.817"/>
<polygon fill="#54e619" stroke="#000000" points="1014.1896,-532.4799 1003.599,-532.7796 1012.0651,-539.1497 1014.1896,-532.4799"/>
<path fill="none" stroke="#000000" d="M1029.2214,-734.3536C1068.4051,-728.9913 1139.0973,-712.8512 1170.7499,-664.9605"/>
</g>
<!-- requests&#45;&gt;s3scraper_amazonscraper_client -->
<g id="edge5" class="edge">
<title>requests&#45;&gt;s3scraper_amazonscraper_client</title><style>.edge>path:hover{stroke-width:8}</style>
<path fill="none" stroke="#000000" d="M974.5421,-732.245C931.2028,-724.1178 849.6439,-706.094 832.7499,-682.9605 823.3138,-670.0392 828.1134,-662.2739 832.7499,-646.9605 841.1086,-619.3537 863.5172,-621.3263 868.7499,-592.9605"/>
<path fill="none" stroke="#000000" d="M868.7499,-592.9605C874.347,-550.8835 866.5421,-536.1324 887.7499,-499.3625 896.4695,-484.2446 910.141,-470.8673 923.1686,-460.3811"/>
<polygon fill="#54e619" stroke="#000000" points="925.3603,-463.1108 931.1469,-454.2358 921.0888,-457.5652 925.3603,-463.1108"/>
</g>
<!-- rotatingproxies -->
<g id="node23" class="node">
<title>rotatingproxies</title><style>.edge>path:hover{stroke-width:8}</style>
<polygon fill="#4cb387" stroke="#000000" points="691.3418,-373.6224 688.3418,-377.6224 667.3418,-377.6224 664.3418,-373.6224 610.1581,-373.6224 610.1581,-337.6224 691.3418,-337.6224 691.3418,-373.6224"/>
<text text-anchor="middle" x="650.7499" y="-352.6224" font-family="Helvetica,sans-Serif" font-size="10.00" fill="#000000">rotatingproxies</text>
</g>
<!-- rotatingproxies&#45;&gt;s3scraper_tpscraper_tp_scraper_policy -->
<g id="edge9" class="edge">
<title>rotatingproxies&#45;&gt;s3scraper_tpscraper_tp_scraper_policy</title><style>.edge>path:hover{stroke-width:8}</style>
<path fill="none" stroke="#000000" d="M628.8071,-337.2974C603.6241,-314.8238 563.4037,-274.1867 544.7499,-229.6224 522.035,-175.3557 520.8218,-105.9738 522.7553,-64.0535"/>
<polygon fill="#4cb387" stroke="#000000" points="526.253,-64.1894 523.3035,-54.0134 519.2634,-63.8077 526.253,-64.1894"/>
</g>
<!-- scrapy -->
<g id="node24" class="node">
<title>scrapy</title><style>.edge>path:hover{stroke-width:8}</style>
<polygon fill="#6a47c2" stroke="#000000" points="746.7499,-537.1615 743.7499,-541.1615 722.7499,-541.1615 719.7499,-537.1615 692.7499,-537.1615 692.7499,-501.1615 746.7499,-501.1615 746.7499,-537.1615"/>
<text text-anchor="middle" x="719.7499" y="-516.1615" font-family="Helvetica,sans-Serif" font-size="10.00" fill="#ffffff">scrapy</text>
</g>
<!-- scrapy&#45;&gt;s3scraper_tpscraper_tp_scraper_spiders_tp -->
<g id="edge34" class="edge">
<title>scrapy&#45;&gt;s3scraper_tpscraper_tp_scraper_spiders_tp</title><style>.edge>path:hover{stroke-width:8}</style>
<path fill="none" stroke="#000000" d="M719.7499,-283.6224C715.6109,-269.7288 714.5423,-254.0433 714.8358,-239.8065"/>
<polygon fill="#6a47c2" stroke="#000000" points="718.3357,-239.8827 715.2659,-229.7424 711.3421,-239.5838 718.3357,-239.8827"/>
</g>
<!-- scrapy&#45;&gt;s3scraper_ebayscraper_scraping_ebay_spiders_ebay -->
<g id="edge31" class="edge">
<title>scrapy&#45;&gt;s3scraper_ebayscraper_scraping_ebay_spiders_ebay</title><style>.edge>path:hover{stroke-width:8}</style>
<path fill="none" stroke="#000000" d="M722.5954,-501.0197C724.6061,-483.9948 725.9659,-458.0018 719.7499,-436.4924"/>
<path fill="none" stroke="#000000" d="M328.7499,-283.6224C257.6698,-223.0942 212.978,-262.8987 125.7499,-229.6224 120.9244,-227.7815 115.9881,-225.6977 111.0909,-223.4903"/>
<polygon fill="#6a47c2" stroke="#000000" points="112.3017,-220.1927 101.7609,-219.1242 109.3348,-226.5328 112.3017,-220.1927"/>
<path fill="none" stroke="#000000" d="M719.7499,-436.4924C706.7995,-391.6793 364.2649,-313.865 328.7499,-283.6224"/>
</g>
<!-- scrapy&#45;&gt;s3scraper_ebayscraper_scraping_ebay_middlewares -->
<g id="edge30" class="edge">
<title>scrapy&#45;&gt;s3scraper_ebayscraper_scraping_ebay_middlewares</title><style>.edge>path:hover{stroke-width:8}</style>
<path fill="none" stroke="#000000" d="M328.7499,-283.6224C301.1977,-260.1603 267.0146,-237.9522 239.9397,-221.7228"/>
<polygon fill="#6a47c2" stroke="#000000" points="241.4374,-218.5419 231.0501,-216.4549 237.8688,-224.564 241.4374,-218.5419"/>
</g>
<!-- scrapy&#45;&gt;s3scraper_ebayscraper_scraping_ebay_items -->
<g id="edge29" class="edge">
<title>scrapy&#45;&gt;s3scraper_ebayscraper_scraping_ebay_items</title><style>.edge>path:hover{stroke-width:8}</style>
<path fill="none" stroke="#000000" d="M328.7499,-283.6224C314.4305,-271.4287 313.8922,-250.6071 317.1876,-232.2846"/>
<polygon fill="#6a47c2" stroke="#000000" points="320.6246,-232.951 319.3497,-222.4332 313.7873,-231.4504 320.6246,-232.951"/>
</g>
<!-- scrapy&#45;&gt;s3scraper_tpscraper_tp_scraper_items -->
<g id="edge32" class="edge">
<title>scrapy&#45;&gt;s3scraper_tpscraper_tp_scraper_items</title><style>.edge>path:hover{stroke-width:8}</style>
<path fill="none" stroke="#000000" d="M328.7499,-283.6224C324.7256,-280.1954 374.4671,-246.2614 411.9044,-221.5698"/>
<polygon fill="#6a47c2" stroke="#000000" points="414.2029,-224.2474 420.6371,-215.83 410.3581,-218.3978 414.2029,-224.2474"/>
</g>
<!-- scrapy&#45;&gt;s3scraper_tpscraper_tp_scraper_middlewares -->
<g id="edge33" class="edge">
<title>scrapy&#45;&gt;s3scraper_tpscraper_tp_scraper_middlewares</title><style>.edge>path:hover{stroke-width:8}</style>
<path fill="none" stroke="#000000" d="M719.7499,-283.6224C714.5576,-266.1931 678.4868,-240.3671 648.1074,-221.2071"/>
<polygon fill="#6a47c2" stroke="#000000" points="649.6537,-218.0472 639.3125,-215.7425 645.9593,-223.993 649.6537,-218.0472"/>
<path fill="none" stroke="#000000" d="M719.7499,-436.4924C700.8874,-371.2211 739.148,-348.7366 719.7499,-283.6224"/>
</g>
<!-- scrapy&#45;&gt;s3scraper_utils -->
<g id="edge35" class="edge">
<title>scrapy&#45;&gt;s3scraper_utils</title><style>.edge>path:hover{stroke-width:8}</style>
<path fill="none" stroke="#000000" d="M719.7499,-436.4924C707.1062,-392.7406 769.9134,-371.2498 812.3382,-361.8736"/>
<polygon fill="#6a47c2" stroke="#000000" points="813.2814,-365.2525 822.3628,-359.7957 811.8606,-358.3982 813.2814,-365.2525"/>
</g>
<!-- scrapy&#45;&gt;rotatingproxies -->
<g id="edge28" class="edge">
<title>scrapy&#45;&gt;rotatingproxies</title><style>.edge>path:hover{stroke-width:8}</style>
<path fill="none" stroke="#000000" d="M719.7499,-436.4924C713.4668,-414.7505 697.3713,-395.2823 682.3053,-380.8982"/>
<polygon fill="#6a47c2" stroke="#000000" points="684.3263,-378.0045 674.5781,-373.8545 679.6107,-383.1778 684.3263,-378.0045"/>
</g>
<!-- sqlalchemy -->
<g id="node25" class="node">
<title>sqlalchemy</title><style>.edge>path:hover{stroke-width:8}</style>
<polygon fill="#b34ca4" stroke="#000000" points="840.7695,-610.9605 837.7695,-614.9605 816.7695,-614.9605 813.7695,-610.9605 774.7304,-610.9605 774.7304,-574.9605 840.7695,-574.9605 840.7695,-610.9605"/>
<text text-anchor="middle" x="807.7499" y="-589.9605" font-family="Helvetica,sans-Serif" font-size="10.00" fill="#ffffff">sqlalchemy</text>
</g>
<!-- sqlalchemy&#45;&gt;s3scraper_db -->
<g id="edge36" class="edge">
<title>sqlalchemy&#45;&gt;s3scraper_db</title><style>.edge>path:hover{stroke-width:8}</style>
<path fill="none" stroke="#000000" d="M812.5334,-574.7054C819.6313,-547.6177 833.0114,-496.5554 841.3708,-464.6533"/>
<polygon fill="#b34ca4" stroke="#000000" points="844.8478,-465.1919 843.9969,-454.6312 838.0764,-463.4175 844.8478,-465.1919"/>
</g>
</g>
</svg>
